<svg width="63" height="14" viewBox="0 0 63 14" fill="none" xmlns="http://www.w3.org/2000/svg">
<path d="M0.78125 11.1797L1.89062 9.21094C2.20312 9.48177 2.5026 9.72656 2.78906 9.94531C3.07552 10.1641 3.38281 10.3385 3.71094 10.4688C4.03906 10.5938 4.42188 10.6562 4.85938 10.6562C5.27604 10.6562 5.61719 10.5417 5.88281 10.3125C6.14844 10.0781 6.28125 9.79427 6.28125 9.46094C6.28125 9.13281 6.15625 8.85938 5.90625 8.64062C5.66146 8.42188 5.34375 8.22917 4.95312 8.0625C4.5625 7.89062 4.14844 7.71875 3.71094 7.54688C3.27865 7.36979 2.86719 7.16406 2.47656 6.92969C2.08594 6.6901 1.76562 6.39062 1.51562 6.03125C1.27083 5.67188 1.14844 5.22396 1.14844 4.6875C1.14844 3.96354 1.39323 3.33594 1.88281 2.80469C2.3724 2.26823 3.0651 1.92448 3.96094 1.77344L3.875 0.40625H5.75L5.66406 1.74219C6.1276 1.79427 6.57031 1.89844 6.99219 2.05469C7.41927 2.20573 7.85938 2.39062 8.3125 2.60938L7.25781 4.41406C6.83594 4.16927 6.45312 3.97656 6.10938 3.83594C5.76562 3.6901 5.34375 3.61719 4.84375 3.61719C4.44792 3.61719 4.1276 3.70573 3.88281 3.88281C3.64323 4.05469 3.52344 4.28125 3.52344 4.5625C3.52344 4.85938 3.64583 5.10677 3.89062 5.30469C4.14062 5.5026 4.45833 5.6849 4.84375 5.85156C5.23438 6.01302 5.64844 6.18229 6.08594 6.35938C6.52344 6.53646 6.9349 6.7474 7.32031 6.99219C7.71094 7.23177 8.02865 7.53385 8.27344 7.89844C8.52344 8.25781 8.64844 8.70573 8.64844 9.24219C8.64844 9.72135 8.53646 10.1927 8.3125 10.6562C8.08854 11.1146 7.75521 11.5104 7.3125 11.8438C6.86979 12.1771 6.32031 12.3984 5.66406 12.5078L5.75 13.8672H3.875L3.96094 12.5156C3.3776 12.4427 2.82552 12.2943 2.30469 12.0703C1.78385 11.8411 1.27604 11.5443 0.78125 11.1797ZM10.4531 3.72656C11.4688 1.9349 12.8906 1.03906 14.7188 1.03906C15.4792 1.03906 16.1458 1.1901 16.7188 1.49219C17.2969 1.78906 17.7474 2.20312 18.0703 2.73438C18.3932 3.26042 18.5547 3.86458 18.5547 4.54688C18.5547 5.49479 18.2188 6.5026 17.5469 7.57031C16.8802 8.63281 15.862 9.73958 14.4922 10.8906H18.9688V13H10.9375V11.4609C11.974 10.612 12.888 9.75781 13.6797 8.89844C14.4714 8.03385 15.0911 7.22656 15.5391 6.47656C15.987 5.72135 16.2109 5.08854 16.2109 4.57812C16.2109 4.16146 16.0651 3.82031 15.7734 3.55469C15.487 3.28385 15.1172 3.14844 14.6641 3.14844C14.2161 3.14844 13.7917 3.29688 13.3906 3.59375C12.9896 3.89062 12.5807 4.35677 12.1641 4.99219L10.4531 3.72656ZM20.6094 12.0938L21.8359 10.3594C22.1953 10.6146 22.5547 10.8307 22.9141 11.0078C23.2734 11.1797 23.6953 11.2656 24.1797 11.2656C24.8151 11.2656 25.3073 11.0677 25.6562 10.6719C26.0052 10.2708 26.1797 9.80729 26.1797 9.28125C26.1797 8.72917 25.9922 8.26042 25.6172 7.875C25.2474 7.48438 24.7266 7.28906 24.0547 7.28906C23.5964 7.28906 23.2005 7.38802 22.8672 7.58594L22.4766 7.8125L21.2969 6.45312L21.8516 1.25781H28.0312V3.36719H23.7422L23.5234 5.40625C23.7995 5.35938 24.0755 5.33594 24.3516 5.33594C25.1432 5.33594 25.8594 5.5026 26.5 5.83594C27.1458 6.16406 27.6562 6.625 28.0312 7.21875C28.4115 7.80729 28.6016 8.4974 28.6016 9.28906C28.6016 10.0964 28.4036 10.7943 28.0078 11.3828C27.612 11.9714 27.0781 12.4245 26.4062 12.7422C25.7396 13.0599 24.9974 13.2188 24.1797 13.2188C23.5286 13.2188 22.9141 13.1198 22.3359 12.9219C21.7578 12.7188 21.1823 12.4427 20.6094 12.0938ZM29.9375 7.14062C29.9375 5.89062 30.0964 4.8099 30.4141 3.89844C30.737 2.98698 31.2135 2.28385 31.8438 1.78906C32.474 1.29427 33.25 1.04688 34.1719 1.04688C35.099 1.04688 35.875 1.29427 36.5 1.78906C37.1302 2.28385 37.6042 2.98698 37.9219 3.89844C38.2448 4.8099 38.4062 5.89062 38.4062 7.14062C38.4062 8.39062 38.2448 9.47135 37.9219 10.3828C37.6042 11.2943 37.1302 11.9974 36.5 12.4922C35.875 12.987 35.099 13.2344 34.1719 13.2344C33.25 13.2344 32.474 12.987 31.8438 12.4922C31.2135 11.9974 30.737 11.2943 30.4141 10.3828C30.0964 9.47135 29.9375 8.39062 29.9375 7.14062ZM32.3281 7.14062C32.3281 8.36458 32.4844 9.33594 32.7969 10.0547C33.1094 10.7682 33.5677 11.125 34.1719 11.125C34.776 11.125 35.2344 10.7682 35.5469 10.0547C35.8594 9.33594 36.0156 8.36458 36.0156 7.14062C36.0156 5.91146 35.8594 4.9401 35.5469 4.22656C35.2344 3.51302 34.776 3.15625 34.1719 3.15625C33.5677 3.15625 33.1094 3.51302 32.7969 4.22656C32.4844 4.9401 32.3281 5.91146 32.3281 7.14062ZM39.7969 11.9062C39.7969 11.5312 39.9115 11.2292 40.1406 11C40.3698 10.7708 40.6719 10.6562 41.0469 10.6562C41.4219 10.6562 41.724 10.7708 41.9531 11C42.1823 11.2292 42.2969 11.5312 42.2969 11.9062C42.2969 12.2812 42.1823 12.5833 41.9531 12.8125C41.724 13.0417 41.4219 13.1562 41.0469 13.1562C40.6719 13.1562 40.3698 13.0417 40.1406 12.8125C39.9115 12.5833 39.7969 12.2812 39.7969 11.9062ZM43.4688 7.14062C43.4688 5.89062 43.6276 4.8099 43.9453 3.89844C44.2682 2.98698 44.7448 2.28385 45.375 1.78906C46.0052 1.29427 46.7812 1.04688 47.7031 1.04688C48.6302 1.04688 49.4062 1.29427 50.0312 1.78906C50.6615 2.28385 51.1354 2.98698 51.4531 3.89844C51.776 4.8099 51.9375 5.89062 51.9375 7.14062C51.9375 8.39062 51.776 9.47135 51.4531 10.3828C51.1354 11.2943 50.6615 11.9974 50.0312 12.4922C49.4062 12.987 48.6302 13.2344 47.7031 13.2344C46.7812 13.2344 46.0052 12.987 45.375 12.4922C44.7448 11.9974 44.2682 11.2943 43.9453 10.3828C43.6276 9.47135 43.4688 8.39062 43.4688 7.14062ZM45.8594 7.14062C45.8594 8.36458 46.0156 9.33594 46.3281 10.0547C46.6406 10.7682 47.099 11.125 47.7031 11.125C48.3073 11.125 48.7656 10.7682 49.0781 10.0547C49.3906 9.33594 49.5469 8.36458 49.5469 7.14062C49.5469 5.91146 49.3906 4.9401 49.0781 4.22656C48.7656 3.51302 48.3073 3.15625 47.7031 3.15625C47.099 3.15625 46.6406 3.51302 46.3281 4.22656C46.0156 4.9401 45.8594 5.91146 45.8594 7.14062ZM53.1875 7.14062C53.1875 5.89062 53.3464 4.8099 53.6641 3.89844C53.987 2.98698 54.4635 2.28385 55.0938 1.78906C55.724 1.29427 56.5 1.04688 57.4219 1.04688C58.349 1.04688 59.125 1.29427 59.75 1.78906C60.3802 2.28385 60.8542 2.98698 61.1719 3.89844C61.4948 4.8099 61.6562 5.89062 61.6562 7.14062C61.6562 8.39062 61.4948 9.47135 61.1719 10.3828C60.8542 11.2943 60.3802 11.9974 59.75 12.4922C59.125 12.987 58.349 13.2344 57.4219 13.2344C56.5 13.2344 55.724 12.987 55.0938 12.4922C54.4635 11.9974 53.987 11.2943 53.6641 10.3828C53.3464 9.47135 53.1875 8.39062 53.1875 7.14062ZM55.5781 7.14062C55.5781 8.36458 55.7344 9.33594 56.0469 10.0547C56.3594 10.7682 56.8177 11.125 57.4219 11.125C58.026 11.125 58.4844 10.7682 58.7969 10.0547C59.1094 9.33594 59.2656 8.36458 59.2656 7.14062C59.2656 5.91146 59.1094 4.9401 58.7969 4.22656C58.4844 3.51302 58.026 3.15625 57.4219 3.15625C56.8177 3.15625 56.3594 3.51302 56.0469 4.22656C55.7344 4.9401 55.5781 5.91146 55.5781 7.14062Z" fill="#B6BCC8"/>
<path d="M0 8.3125H62.2812V9.25H0V8.3125Z" fill="#B6BCC8"/>
</svg>
